<?xml version="1.0" encoding="UTF-8" standalone="no"?>
<!DOCTYPE svg PUBLIC "-//W3C//DTD SVG 1.1//EN"
 "http://www.w3.org/Graphics/SVG/1.1/DTD/svg11.dtd">
<!-- Generated by graphviz version 2.43.0 (0)
 -->
<!-- Title: %3 Pages: 1 -->
<svg width="3614pt" height="404pt"
 viewBox="0.00 0.00 3613.88 404.00" xmlns="http://www.w3.org/2000/svg" xmlns:xlink="http://www.w3.org/1999/xlink">
<g id="graph0" class="graph" transform="scale(1 1) rotate(0) translate(4 400)">
<title>%3</title>
<polygon fill="white" stroke="transparent" points="-4,4 -4,-400 3609.88,-400 3609.88,4 -4,4"/>
<!-- [root] aws_instance.east_backend (expand) -->
<g id="node1" class="node">
<title>[root] aws_instance.east_backend (expand)</title>
<polygon fill="none" stroke="black" points="1140.38,-180 928.38,-180 928.38,-144 1140.38,-144 1140.38,-180"/>
<text text-anchor="middle" x="1034.38" y="-158.3" font-family="Times,serif" font-size="14.00">aws_instance.east_backend</text>
</g>
<!-- [root] provider[&quot;registry.terraform.io/hashicorp/aws&quot;] -->
<g id="node5" class="node">
<title>[root] provider[&quot;registry.terraform.io/hashicorp/aws&quot;]</title>
<polygon fill="none" stroke="black" points="325.38,-108 0.12,-90 325.38,-72 650.65,-90 325.38,-108"/>
<text text-anchor="middle" x="325.38" y="-86.3" font-family="Times,serif" font-size="14.00">provider[&quot;registry.terraform.io/hashicorp/aws&quot;]</text>
</g>
<!-- [root] aws_instance.east_backend (expand)&#45;&gt;[root] provider[&quot;registry.terraform.io/hashicorp/aws&quot;] -->
<g id="edge1" class="edge">
<title>[root] aws_instance.east_backend (expand)&#45;&gt;[root] provider[&quot;registry.terraform.io/hashicorp/aws&quot;]</title>
<path fill="none" stroke="black" d="M928.24,-150.52C798.97,-137.76 581.16,-116.25 445.77,-102.89"/>
<polygon fill="black" stroke="black" points="446.05,-99.4 435.76,-101.9 445.37,-106.36 446.05,-99.4"/>
</g>
<!-- [root] var.ec2_instance_ami_east -->
<g id="node7" class="node">
<title>[root] var.ec2_instance_ami_east</title>
<polygon fill="none" stroke="black" points="866.38,-108 668.38,-108 668.38,-72 872.38,-72 872.38,-102 866.38,-108"/>
<polyline fill="none" stroke="black" points="866.38,-108 866.38,-102 "/>
<polyline fill="none" stroke="black" points="872.38,-102 866.38,-102 "/>
<text text-anchor="middle" x="770.38" y="-86.3" font-family="Times,serif" font-size="14.00">var.ec2_instance_ami_east</text>
</g>
<!-- [root] aws_instance.east_backend (expand)&#45;&gt;[root] var.ec2_instance_ami_east -->
<g id="edge2" class="edge">
<title>[root] aws_instance.east_backend (expand)&#45;&gt;[root] var.ec2_instance_ami_east</title>
<path fill="none" stroke="black" d="M970.14,-143.97C932.29,-133.93 884.24,-121.19 844.76,-110.72"/>
<polygon fill="black" stroke="black" points="845.48,-107.29 834.91,-108.11 843.68,-114.06 845.48,-107.29"/>
</g>
<!-- [root] var.ec2_instance_count -->
<g id="node11" class="node">
<title>[root] var.ec2_instance_count</title>
<polygon fill="none" stroke="black" points="1203.88,-108 1028.88,-108 1028.88,-72 1209.88,-72 1209.88,-102 1203.88,-108"/>
<polyline fill="none" stroke="black" points="1203.88,-108 1203.88,-102 "/>
<polyline fill="none" stroke="black" points="1209.88,-102 1203.88,-102 "/>
<text text-anchor="middle" x="1119.38" y="-86.3" font-family="Times,serif" font-size="14.00">var.ec2_instance_count</text>
</g>
<!-- [root] aws_instance.east_backend (expand)&#45;&gt;[root] var.ec2_instance_count -->
<g id="edge3" class="edge">
<title>[root] aws_instance.east_backend (expand)&#45;&gt;[root] var.ec2_instance_count</title>
<path fill="none" stroke="black" d="M1055.39,-143.7C1066.1,-134.88 1079.27,-124.03 1090.88,-114.47"/>
<polygon fill="black" stroke="black" points="1093.12,-117.16 1098.61,-108.1 1088.67,-111.76 1093.12,-117.16"/>
</g>
<!-- [root] var.ec2_instance_type -->
<g id="node14" class="node">
<title>[root] var.ec2_instance_type</title>
<polygon fill="none" stroke="black" points="1394.88,-108 1227.88,-108 1227.88,-72 1400.88,-72 1400.88,-102 1394.88,-108"/>
<polyline fill="none" stroke="black" points="1394.88,-108 1394.88,-102 "/>
<polyline fill="none" stroke="black" points="1400.88,-102 1394.88,-102 "/>
<text text-anchor="middle" x="1314.38" y="-86.3" font-family="Times,serif" font-size="14.00">var.ec2_instance_type</text>
</g>
<!-- [root] aws_instance.east_backend (expand)&#45;&gt;[root] var.ec2_instance_type -->
<g id="edge4" class="edge">
<title>[root] aws_instance.east_backend (expand)&#45;&gt;[root] var.ec2_instance_type</title>
<path fill="none" stroke="black" d="M1102.52,-143.97C1142.83,-133.89 1194.05,-121.08 1236.03,-110.59"/>
<polygon fill="black" stroke="black" points="1237.09,-113.93 1245.94,-108.11 1235.39,-107.14 1237.09,-113.93"/>
</g>
<!-- [root] var.project&#45;name -->
<g id="node18" class="node">
<title>[root] var.project&#45;name</title>
<polygon fill="none" stroke="black" points="1549.88,-108 1418.88,-108 1418.88,-72 1555.88,-72 1555.88,-102 1549.88,-108"/>
<polyline fill="none" stroke="black" points="1549.88,-108 1549.88,-102 "/>
<polyline fill="none" stroke="black" points="1555.88,-102 1549.88,-102 "/>
<text text-anchor="middle" x="1487.38" y="-86.3" font-family="Times,serif" font-size="14.00">var.project&#45;name</text>
</g>
<!-- [root] aws_instance.east_backend (expand)&#45;&gt;[root] var.project&#45;name -->
<g id="edge5" class="edge">
<title>[root] aws_instance.east_backend (expand)&#45;&gt;[root] var.project&#45;name</title>
<path fill="none" stroke="black" d="M1140.59,-148.12C1213.36,-138.8 1312.27,-125.14 1408.62,-108.07"/>
<polygon fill="black" stroke="black" points="1409.3,-111.5 1418.53,-106.3 1408.07,-104.61 1409.3,-111.5"/>
</g>
<!-- [root] var.zones_east -->
<g id="node19" class="node">
<title>[root] var.zones_east</title>
<polygon fill="none" stroke="black" points="1004.38,-108 890.38,-108 890.38,-72 1010.38,-72 1010.38,-102 1004.38,-108"/>
<polyline fill="none" stroke="black" points="1004.38,-108 1004.38,-102 "/>
<polyline fill="none" stroke="black" points="1010.38,-102 1004.38,-102 "/>
<text text-anchor="middle" x="950.38" y="-86.3" font-family="Times,serif" font-size="14.00">var.zones_east</text>
</g>
<!-- [root] aws_instance.east_backend (expand)&#45;&gt;[root] var.zones_east -->
<g id="edge6" class="edge">
<title>[root] aws_instance.east_backend (expand)&#45;&gt;[root] var.zones_east</title>
<path fill="none" stroke="black" d="M1013.62,-143.7C1003.14,-134.97 990.27,-124.24 978.88,-114.75"/>
<polygon fill="black" stroke="black" points="980.83,-111.82 970.91,-108.1 976.35,-117.19 980.83,-111.82"/>
</g>
<!-- [root] aws_instance.east_frontend (expand) -->
<g id="node2" class="node">
<title>[root] aws_instance.east_frontend (expand)</title>
<polygon fill="none" stroke="black" points="1141.38,-252 927.38,-252 927.38,-216 1141.38,-216 1141.38,-252"/>
<text text-anchor="middle" x="1034.38" y="-230.3" font-family="Times,serif" font-size="14.00">aws_instance.east_frontend</text>
</g>
<!-- [root] aws_instance.east_frontend (expand)&#45;&gt;[root] aws_instance.east_backend (expand) -->
<g id="edge7" class="edge">
<title>[root] aws_instance.east_frontend (expand)&#45;&gt;[root] aws_instance.east_backend (expand)</title>
<path fill="none" stroke="black" d="M1034.38,-215.7C1034.38,-207.98 1034.38,-198.71 1034.38,-190.11"/>
<polygon fill="black" stroke="black" points="1037.88,-190.1 1034.38,-180.1 1030.88,-190.1 1037.88,-190.1"/>
</g>
<!-- [root] aws_instance.west_backend (expand) -->
<g id="node3" class="node">
<title>[root] aws_instance.west_backend (expand)</title>
<polygon fill="none" stroke="black" points="1790.88,-180 1575.88,-180 1575.88,-144 1790.88,-144 1790.88,-180"/>
<text text-anchor="middle" x="1683.38" y="-158.3" font-family="Times,serif" font-size="14.00">aws_instance.west_backend</text>
</g>
<!-- [root] provider[&quot;registry.terraform.io/hashicorp/aws&quot;].us&#45;west&#45;1 -->
<g id="node6" class="node">
<title>[root] provider[&quot;registry.terraform.io/hashicorp/aws&quot;].us&#45;west&#45;1</title>
<polygon fill="none" stroke="black" points="2345.38,-108 1952.92,-90 2345.38,-72 2737.84,-90 2345.38,-108"/>
<text text-anchor="middle" x="2345.38" y="-86.3" font-family="Times,serif" font-size="14.00">provider[&quot;registry.terraform.io/hashicorp/aws&quot;].us&#45;west&#45;1</text>
</g>
<!-- [root] aws_instance.west_backend (expand)&#45;&gt;[root] provider[&quot;registry.terraform.io/hashicorp/aws&quot;].us&#45;west&#45;1 -->
<g id="edge8" class="edge">
<title>[root] aws_instance.west_backend (expand)&#45;&gt;[root] provider[&quot;registry.terraform.io/hashicorp/aws&quot;].us&#45;west&#45;1</title>
<path fill="none" stroke="black" d="M1791.22,-149.6C1909.53,-137.09 2099.04,-117.05 2222.88,-103.95"/>
<polygon fill="black" stroke="black" points="2223.59,-107.4 2233.16,-102.87 2222.85,-100.44 2223.59,-107.4"/>
</g>
<!-- [root] var.ec2_instance_ami_west -->
<g id="node8" class="node">
<title>[root] var.ec2_instance_ami_west</title>
<polygon fill="none" stroke="black" points="2957.38,-108 2755.38,-108 2755.38,-72 2963.38,-72 2963.38,-102 2957.38,-108"/>
<polyline fill="none" stroke="black" points="2957.38,-108 2957.38,-102 "/>
<polyline fill="none" stroke="black" points="2963.38,-102 2957.38,-102 "/>
<text text-anchor="middle" x="2859.38" y="-86.3" font-family="Times,serif" font-size="14.00">var.ec2_instance_ami_west</text>
</g>
<!-- [root] aws_instance.west_backend (expand)&#45;&gt;[root] var.ec2_instance_ami_west -->
<g id="edge9" class="edge">
<title>[root] aws_instance.west_backend (expand)&#45;&gt;[root] var.ec2_instance_ami_west</title>
<path fill="none" stroke="black" d="M1791.15,-159.17C1981.66,-155.15 2390.52,-143.01 2745.42,-108.03"/>
<polygon fill="black" stroke="black" points="2745.77,-111.52 2755.37,-107.05 2745.08,-104.55 2745.77,-111.52"/>
</g>
<!-- [root] aws_instance.west_backend (expand)&#45;&gt;[root] var.ec2_instance_count -->
<g id="edge10" class="edge">
<title>[root] aws_instance.west_backend (expand)&#45;&gt;[root] var.ec2_instance_count</title>
<path fill="none" stroke="black" d="M1575.57,-150.46C1483.58,-141.06 1347.56,-126.2 1219.94,-108.18"/>
<polygon fill="black" stroke="black" points="1220.38,-104.71 1209.99,-106.77 1219.39,-111.64 1220.38,-104.71"/>
</g>
<!-- [root] aws_instance.west_backend (expand)&#45;&gt;[root] var.ec2_instance_type -->
<g id="edge11" class="edge">
<title>[root] aws_instance.west_backend (expand)&#45;&gt;[root] var.ec2_instance_type</title>
<path fill="none" stroke="black" d="M1593.59,-143.97C1538.34,-133.49 1467.56,-120.06 1411.09,-109.35"/>
<polygon fill="black" stroke="black" points="1411.55,-105.87 1401.08,-107.45 1410.25,-112.75 1411.55,-105.87"/>
</g>
<!-- [root] var.multi&#45;region&#45;deployment -->
<g id="node17" class="node">
<title>[root] var.multi&#45;region&#45;deployment</title>
<polygon fill="none" stroke="black" points="1786.88,-108 1573.88,-108 1573.88,-72 1792.88,-72 1792.88,-102 1786.88,-108"/>
<polyline fill="none" stroke="black" points="1786.88,-108 1786.88,-102 "/>
<polyline fill="none" stroke="black" points="1792.88,-102 1786.88,-102 "/>
<text text-anchor="middle" x="1683.38" y="-86.3" font-family="Times,serif" font-size="14.00">var.multi&#45;region&#45;deployment</text>
</g>
<!-- [root] aws_instance.west_backend (expand)&#45;&gt;[root] var.multi&#45;region&#45;deployment -->
<g id="edge12" class="edge">
<title>[root] aws_instance.west_backend (expand)&#45;&gt;[root] var.multi&#45;region&#45;deployment</title>
<path fill="none" stroke="black" d="M1683.38,-143.7C1683.38,-135.98 1683.38,-126.71 1683.38,-118.11"/>
<polygon fill="black" stroke="black" points="1686.88,-118.1 1683.38,-108.1 1679.88,-118.1 1686.88,-118.1"/>
</g>
<!-- [root] aws_instance.west_backend (expand)&#45;&gt;[root] var.project&#45;name -->
<g id="edge13" class="edge">
<title>[root] aws_instance.west_backend (expand)&#45;&gt;[root] var.project&#45;name</title>
<path fill="none" stroke="black" d="M1635.69,-143.97C1608.3,-134.19 1573.72,-121.84 1544.85,-111.52"/>
<polygon fill="black" stroke="black" points="1545.89,-108.18 1535.29,-108.11 1543.53,-114.77 1545.89,-108.18"/>
</g>
<!-- [root] var.zones_west -->
<g id="node20" class="node">
<title>[root] var.zones_west</title>
<polygon fill="none" stroke="black" points="1929.38,-108 1811.38,-108 1811.38,-72 1935.38,-72 1935.38,-102 1929.38,-108"/>
<polyline fill="none" stroke="black" points="1929.38,-108 1929.38,-102 "/>
<polyline fill="none" stroke="black" points="1935.38,-102 1929.38,-102 "/>
<text text-anchor="middle" x="1873.38" y="-86.3" font-family="Times,serif" font-size="14.00">var.zones_west</text>
</g>
<!-- [root] aws_instance.west_backend (expand)&#45;&gt;[root] var.zones_west -->
<g id="edge14" class="edge">
<title>[root] aws_instance.west_backend (expand)&#45;&gt;[root] var.zones_west</title>
<path fill="none" stroke="black" d="M1729.86,-143.88C1756.3,-134.14 1789.58,-121.87 1817.45,-111.61"/>
<polygon fill="black" stroke="black" points="1818.88,-114.81 1827.05,-108.07 1816.46,-108.24 1818.88,-114.81"/>
</g>
<!-- [root] aws_instance.west_frontend (expand) -->
<g id="node4" class="node">
<title>[root] aws_instance.west_frontend (expand)</title>
<polygon fill="none" stroke="black" points="1792.38,-252 1574.38,-252 1574.38,-216 1792.38,-216 1792.38,-252"/>
<text text-anchor="middle" x="1683.38" y="-230.3" font-family="Times,serif" font-size="14.00">aws_instance.west_frontend</text>
</g>
<!-- [root] aws_instance.west_frontend (expand)&#45;&gt;[root] aws_instance.west_backend (expand) -->
<g id="edge15" class="edge">
<title>[root] aws_instance.west_frontend (expand)&#45;&gt;[root] aws_instance.west_backend (expand)</title>
<path fill="none" stroke="black" d="M1683.38,-215.7C1683.38,-207.98 1683.38,-198.71 1683.38,-190.11"/>
<polygon fill="black" stroke="black" points="1686.88,-190.1 1683.38,-180.1 1679.88,-190.1 1686.88,-190.1"/>
</g>
<!-- [root] var.ec2_region_east -->
<g id="node15" class="node">
<title>[root] var.ec2_region_east</title>
<polygon fill="none" stroke="black" points="397.88,-36 246.88,-36 246.88,0 403.88,0 403.88,-30 397.88,-36"/>
<polyline fill="none" stroke="black" points="397.88,-36 397.88,-30 "/>
<polyline fill="none" stroke="black" points="403.88,-30 397.88,-30 "/>
<text text-anchor="middle" x="325.38" y="-14.3" font-family="Times,serif" font-size="14.00">var.ec2_region_east</text>
</g>
<!-- [root] provider[&quot;registry.terraform.io/hashicorp/aws&quot;]&#45;&gt;[root] var.ec2_region_east -->
<g id="edge19" class="edge">
<title>[root] provider[&quot;registry.terraform.io/hashicorp/aws&quot;]&#45;&gt;[root] var.ec2_region_east</title>
<path fill="none" stroke="black" d="M325.38,-71.7C325.38,-63.98 325.38,-54.71 325.38,-46.11"/>
<polygon fill="black" stroke="black" points="328.88,-46.1 325.38,-36.1 321.88,-46.1 328.88,-46.1"/>
</g>
<!-- [root] var.ec2_region_west -->
<g id="node16" class="node">
<title>[root] var.ec2_region_west</title>
<polygon fill="none" stroke="black" points="2419.88,-36 2264.88,-36 2264.88,0 2425.88,0 2425.88,-30 2419.88,-36"/>
<polyline fill="none" stroke="black" points="2419.88,-36 2419.88,-30 "/>
<polyline fill="none" stroke="black" points="2425.88,-30 2419.88,-30 "/>
<text text-anchor="middle" x="2345.38" y="-14.3" font-family="Times,serif" font-size="14.00">var.ec2_region_west</text>
</g>
<!-- [root] provider[&quot;registry.terraform.io/hashicorp/aws&quot;].us&#45;west&#45;1&#45;&gt;[root] var.ec2_region_west -->
<g id="edge21" class="edge">
<title>[root] provider[&quot;registry.terraform.io/hashicorp/aws&quot;].us&#45;west&#45;1&#45;&gt;[root] var.ec2_region_west</title>
<path fill="none" stroke="black" d="M2345.38,-71.7C2345.38,-63.98 2345.38,-54.71 2345.38,-46.11"/>
<polygon fill="black" stroke="black" points="2348.88,-46.1 2345.38,-36.1 2341.88,-46.1 2348.88,-46.1"/>
</g>
<!-- [root] var.ec2_instance_back_east_name -->
<g id="node9" class="node">
<title>[root] var.ec2_instance_back_east_name</title>
<polygon fill="none" stroke="black" points="2762.88,-324 2511.88,-324 2511.88,-288 2768.88,-288 2768.88,-318 2762.88,-324"/>
<polyline fill="none" stroke="black" points="2762.88,-324 2762.88,-318 "/>
<polyline fill="none" stroke="black" points="2768.88,-318 2762.88,-318 "/>
<text text-anchor="middle" x="2640.38" y="-302.3" font-family="Times,serif" font-size="14.00">var.ec2_instance_back_east_name</text>
</g>
<!-- [root] var.ec2_instance_back_west_name -->
<g id="node10" class="node">
<title>[root] var.ec2_instance_back_west_name</title>
<polygon fill="none" stroke="black" points="3041.38,-324 2787.38,-324 2787.38,-288 3047.38,-288 3047.38,-318 3041.38,-324"/>
<polyline fill="none" stroke="black" points="3041.38,-324 3041.38,-318 "/>
<polyline fill="none" stroke="black" points="3047.38,-318 3041.38,-318 "/>
<text text-anchor="middle" x="2917.38" y="-302.3" font-family="Times,serif" font-size="14.00">var.ec2_instance_back_west_name</text>
</g>
<!-- [root] var.ec2_instance_front_east_name -->
<g id="node12" class="node">
<title>[root] var.ec2_instance_front_east_name</title>
<polygon fill="none" stroke="black" points="3318.88,-324 3065.88,-324 3065.88,-288 3324.88,-288 3324.88,-318 3318.88,-324"/>
<polyline fill="none" stroke="black" points="3318.88,-324 3318.88,-318 "/>
<polyline fill="none" stroke="black" points="3324.88,-318 3318.88,-318 "/>
<text text-anchor="middle" x="3195.38" y="-302.3" font-family="Times,serif" font-size="14.00">var.ec2_instance_front_east_name</text>
</g>
<!-- [root] var.ec2_instance_front_west_name -->
<g id="node13" class="node">
<title>[root] var.ec2_instance_front_west_name</title>
<polygon fill="none" stroke="black" points="3599.88,-324 3342.88,-324 3342.88,-288 3605.88,-288 3605.88,-318 3599.88,-324"/>
<polyline fill="none" stroke="black" points="3599.88,-324 3599.88,-318 "/>
<polyline fill="none" stroke="black" points="3605.88,-318 3599.88,-318 "/>
<text text-anchor="middle" x="3474.38" y="-302.3" font-family="Times,serif" font-size="14.00">var.ec2_instance_front_west_name</text>
</g>
<!-- [root] output.public_ips_east (expand) -->
<g id="node21" class="node">
<title>[root] output.public_ips_east (expand)</title>
<ellipse fill="none" stroke="black" cx="613.38" cy="-306" rx="186.57" ry="18"/>
<text text-anchor="middle" x="613.38" y="-302.3" font-family="Times,serif" font-size="14.00">[root] output.public_ips_east (expand)</text>
</g>
<!-- [root] output.public_ips_east (expand)&#45;&gt;[root] aws_instance.east_frontend (expand) -->
<g id="edge16" class="edge">
<title>[root] output.public_ips_east (expand)&#45;&gt;[root] aws_instance.east_frontend (expand)</title>
<path fill="none" stroke="black" d="M702.66,-290.15C766.62,-279.52 853.22,-265.12 921.9,-253.7"/>
<polygon fill="black" stroke="black" points="922.61,-257.13 931.9,-252.04 921.46,-250.23 922.61,-257.13"/>
</g>
<!-- [root] output.public_ips_west (expand) -->
<g id="node22" class="node">
<title>[root] output.public_ips_west (expand)</title>
<ellipse fill="none" stroke="black" cx="1608.38" cy="-306" rx="189.27" ry="18"/>
<text text-anchor="middle" x="1608.38" y="-302.3" font-family="Times,serif" font-size="14.00">[root] output.public_ips_west (expand)</text>
</g>
<!-- [root] output.public_ips_west (expand)&#45;&gt;[root] aws_instance.west_frontend (expand) -->
<g id="edge17" class="edge">
<title>[root] output.public_ips_west (expand)&#45;&gt;[root] aws_instance.west_frontend (expand)</title>
<path fill="none" stroke="black" d="M1626.54,-288.05C1635.86,-279.35 1647.39,-268.59 1657.62,-259.04"/>
<polygon fill="black" stroke="black" points="1660.21,-261.41 1665.13,-252.03 1655.43,-256.3 1660.21,-261.41"/>
</g>
<!-- [root] provider[&quot;registry.terraform.io/hashicorp/aws&quot;] (close) -->
<g id="node23" class="node">
<title>[root] provider[&quot;registry.terraform.io/hashicorp/aws&quot;] (close)</title>
<ellipse fill="none" stroke="black" cx="1109.38" cy="-306" rx="291.65" ry="18"/>
<text text-anchor="middle" x="1109.38" y="-302.3" font-family="Times,serif" font-size="14.00">[root] provider[&quot;registry.terraform.io/hashicorp/aws&quot;] (close)</text>
</g>
<!-- [root] provider[&quot;registry.terraform.io/hashicorp/aws&quot;] (close)&#45;&gt;[root] aws_instance.east_frontend (expand) -->
<g id="edge18" class="edge">
<title>[root] provider[&quot;registry.terraform.io/hashicorp/aws&quot;] (close)&#45;&gt;[root] aws_instance.east_frontend (expand)</title>
<path fill="none" stroke="black" d="M1090.84,-287.7C1081.58,-279.05 1070.22,-268.45 1060.12,-259.03"/>
<polygon fill="black" stroke="black" points="1062.41,-256.37 1052.71,-252.1 1057.63,-261.49 1062.41,-256.37"/>
</g>
<!-- [root] provider[&quot;registry.terraform.io/hashicorp/aws&quot;].us&#45;west&#45;1 (close) -->
<g id="node24" class="node">
<title>[root] provider[&quot;registry.terraform.io/hashicorp/aws&quot;].us&#45;west&#45;1 (close)</title>
<ellipse fill="none" stroke="black" cx="2154.38" cy="-306" rx="339.04" ry="18"/>
<text text-anchor="middle" x="2154.38" y="-302.3" font-family="Times,serif" font-size="14.00">[root] provider[&quot;registry.terraform.io/hashicorp/aws&quot;].us&#45;west&#45;1 (close)</text>
</g>
<!-- [root] provider[&quot;registry.terraform.io/hashicorp/aws&quot;].us&#45;west&#45;1 (close)&#45;&gt;[root] aws_instance.west_frontend (expand) -->
<g id="edge20" class="edge">
<title>[root] provider[&quot;registry.terraform.io/hashicorp/aws&quot;].us&#45;west&#45;1 (close)&#45;&gt;[root] aws_instance.west_frontend (expand)</title>
<path fill="none" stroke="black" d="M2046.03,-288.9C1973.24,-278.08 1877.31,-263.82 1802.39,-252.69"/>
<polygon fill="black" stroke="black" points="1802.84,-249.22 1792.43,-251.21 1801.81,-256.14 1802.84,-249.22"/>
</g>
<!-- [root] root -->
<g id="node25" class="node">
<title>[root] root</title>
<ellipse fill="none" stroke="black" cx="2397.38" cy="-378" rx="58.49" ry="18"/>
<text text-anchor="middle" x="2397.38" y="-374.3" font-family="Times,serif" font-size="14.00">[root] root</text>
</g>
<!-- [root] root&#45;&gt;[root] var.ec2_instance_back_east_name -->
<g id="edge26" class="edge">
<title>[root] root&#45;&gt;[root] var.ec2_instance_back_east_name</title>
<path fill="none" stroke="black" d="M2438.6,-365.13C2474.91,-354.67 2528.52,-339.22 2571.36,-326.88"/>
<polygon fill="black" stroke="black" points="2572.52,-330.19 2581.16,-324.06 2570.58,-323.46 2572.52,-330.19"/>
</g>
<!-- [root] root&#45;&gt;[root] var.ec2_instance_back_west_name -->
<g id="edge27" class="edge">
<title>[root] root&#45;&gt;[root] var.ec2_instance_back_west_name</title>
<path fill="none" stroke="black" d="M2450.1,-369.9C2527.03,-359.55 2672.67,-339.94 2780.99,-325.36"/>
<polygon fill="black" stroke="black" points="2781.58,-328.81 2791.03,-324.01 2780.65,-321.87 2781.58,-328.81"/>
</g>
<!-- [root] root&#45;&gt;[root] var.ec2_instance_front_east_name -->
<g id="edge28" class="edge">
<title>[root] root&#45;&gt;[root] var.ec2_instance_front_east_name</title>
<path fill="none" stroke="black" d="M2453.87,-373.25C2566.23,-365.62 2825.95,-347.11 3055.34,-324.08"/>
<polygon fill="black" stroke="black" points="3055.95,-327.54 3065.55,-323.05 3055.25,-320.57 3055.95,-327.54"/>
</g>
<!-- [root] root&#45;&gt;[root] var.ec2_instance_front_west_name -->
<g id="edge29" class="edge">
<title>[root] root&#45;&gt;[root] var.ec2_instance_front_west_name</title>
<path fill="none" stroke="black" d="M2455.32,-375.02C2601,-369.76 2994.5,-353.84 3332.88,-324.1"/>
<polygon fill="black" stroke="black" points="3333.23,-327.59 3342.88,-323.22 3332.61,-320.61 3333.23,-327.59"/>
</g>
<!-- [root] root&#45;&gt;[root] output.public_ips_east (expand) -->
<g id="edge22" class="edge">
<title>[root] root&#45;&gt;[root] output.public_ips_east (expand)</title>
<path fill="none" stroke="black" d="M2338.89,-376.18C2130.61,-373.02 1405.58,-359.97 808.38,-324 789.89,-322.89 770.44,-321.48 751.27,-319.95"/>
<polygon fill="black" stroke="black" points="751.53,-316.46 741.28,-319.14 750.96,-323.43 751.53,-316.46"/>
</g>
<!-- [root] root&#45;&gt;[root] output.public_ips_west (expand) -->
<g id="edge23" class="edge">
<title>[root] root&#45;&gt;[root] output.public_ips_west (expand)</title>
<path fill="none" stroke="black" d="M2341.9,-372.08C2220.61,-361.32 1928.58,-335.41 1751.75,-319.72"/>
<polygon fill="black" stroke="black" points="1751.86,-316.22 1741.59,-318.82 1751.24,-323.19 1751.86,-316.22"/>
</g>
<!-- [root] root&#45;&gt;[root] provider[&quot;registry.terraform.io/hashicorp/aws&quot;] (close) -->
<g id="edge24" class="edge">
<title>[root] root&#45;&gt;[root] provider[&quot;registry.terraform.io/hashicorp/aws&quot;] (close)</title>
<path fill="none" stroke="black" d="M2340.08,-373.98C2188.39,-365.97 1763.77,-343.47 1410.38,-324 1383.03,-322.49 1354.29,-320.89 1325.86,-319.3"/>
<polygon fill="black" stroke="black" points="1326,-315.8 1315.82,-318.74 1325.61,-322.79 1326,-315.8"/>
</g>
<!-- [root] root&#45;&gt;[root] provider[&quot;registry.terraform.io/hashicorp/aws&quot;].us&#45;west&#45;1 (close) -->
<g id="edge25" class="edge">
<title>[root] root&#45;&gt;[root] provider[&quot;registry.terraform.io/hashicorp/aws&quot;].us&#45;west&#45;1 (close)</title>
<path fill="none" stroke="black" d="M2356.16,-365.13C2319.6,-354.59 2265.5,-339.01 2222.51,-326.63"/>
<polygon fill="black" stroke="black" points="2223.26,-323.2 2212.69,-323.8 2221.33,-329.93 2223.26,-323.2"/>
</g>
</g>
</svg>
