<?xml version="1.0" encoding="UTF-8" standalone="no"?>
<!DOCTYPE svg PUBLIC "-//W3C//DTD SVG 1.1//EN"
 "http://www.w3.org/Graphics/SVG/1.1/DTD/svg11.dtd">
<!-- Generated by graphviz version 2.43.0 (0)
 -->
<!-- Title: %3 Pages: 1 -->
<svg width="718pt" height="548pt"
 viewBox="0.00 0.00 717.59 548.00" xmlns="http://www.w3.org/2000/svg" xmlns:xlink="http://www.w3.org/1999/xlink">
<g id="graph0" class="graph" transform="scale(1 1) rotate(0) translate(4 544)">
<title>%3</title>
<polygon fill="white" stroke="transparent" points="-4,4 -4,-544 713.59,-544 713.59,4 -4,4"/>
<!-- [root] azurerm_network_interface.example (expand) -->
<g id="node1" class="node">
<title>[root] azurerm_network_interface.example (expand)</title>
<polygon fill="none" stroke="black" points="621.29,-324 344.29,-324 344.29,-288 621.29,-288 621.29,-324"/>
<text text-anchor="middle" x="482.79" y="-302.3" font-family="Times,serif" font-size="14.00">azurerm_network_interface.example</text>
</g>
<!-- [root] azurerm_subnet.internal (expand) -->
<g id="node4" class="node">
<title>[root] azurerm_subnet.internal (expand)</title>
<polygon fill="none" stroke="black" points="546.29,-252 353.29,-252 353.29,-216 546.29,-216 546.29,-252"/>
<text text-anchor="middle" x="449.79" y="-230.3" font-family="Times,serif" font-size="14.00">azurerm_subnet.internal</text>
</g>
<!-- [root] azurerm_network_interface.example (expand)&#45;&gt;[root] azurerm_subnet.internal (expand) -->
<g id="edge1" class="edge">
<title>[root] azurerm_network_interface.example (expand)&#45;&gt;[root] azurerm_subnet.internal (expand)</title>
<path fill="none" stroke="black" d="M474.64,-287.7C470.88,-279.73 466.34,-270.1 462.18,-261.26"/>
<polygon fill="black" stroke="black" points="465.29,-259.66 457.86,-252.1 458.96,-262.64 465.29,-259.66"/>
</g>
<!-- [root] azurerm_resource_group.rg (expand) -->
<g id="node2" class="node">
<title>[root] azurerm_resource_group.rg (expand)</title>
<polygon fill="none" stroke="black" points="462.29,-108 247.29,-108 247.29,-72 462.29,-72 462.29,-108"/>
<text text-anchor="middle" x="354.79" y="-86.3" font-family="Times,serif" font-size="14.00">azurerm_resource_group.rg</text>
</g>
<!-- [root] provider[&quot;registry.terraform.io/hashicorp/azurerm&quot;] -->
<g id="node7" class="node">
<title>[root] provider[&quot;registry.terraform.io/hashicorp/azurerm&quot;]</title>
<polygon fill="none" stroke="black" points="354.79,-36 0.21,-18 354.79,0 709.38,-18 354.79,-36"/>
<text text-anchor="middle" x="354.79" y="-14.3" font-family="Times,serif" font-size="14.00">provider[&quot;registry.terraform.io/hashicorp/azurerm&quot;]</text>
</g>
<!-- [root] azurerm_resource_group.rg (expand)&#45;&gt;[root] provider[&quot;registry.terraform.io/hashicorp/azurerm&quot;] -->
<g id="edge2" class="edge">
<title>[root] azurerm_resource_group.rg (expand)&#45;&gt;[root] provider[&quot;registry.terraform.io/hashicorp/azurerm&quot;]</title>
<path fill="none" stroke="black" d="M354.79,-71.7C354.79,-63.98 354.79,-54.71 354.79,-46.11"/>
<polygon fill="black" stroke="black" points="358.29,-46.1 354.79,-36.1 351.29,-46.1 358.29,-46.1"/>
</g>
<!-- [root] azurerm_subnet.external (expand) -->
<g id="node3" class="node">
<title>[root] azurerm_subnet.external (expand)</title>
<polygon fill="none" stroke="black" points="325.79,-324 129.79,-324 129.79,-288 325.79,-288 325.79,-324"/>
<text text-anchor="middle" x="227.79" y="-302.3" font-family="Times,serif" font-size="14.00">azurerm_subnet.external</text>
</g>
<!-- [root] azurerm_virtual_network.example (expand) -->
<g id="node6" class="node">
<title>[root] azurerm_virtual_network.example (expand)</title>
<polygon fill="none" stroke="black" points="484.79,-180 224.79,-180 224.79,-144 484.79,-144 484.79,-180"/>
<text text-anchor="middle" x="354.79" y="-158.3" font-family="Times,serif" font-size="14.00">azurerm_virtual_network.example</text>
</g>
<!-- [root] azurerm_subnet.external (expand)&#45;&gt;[root] azurerm_virtual_network.example (expand) -->
<g id="edge3" class="edge">
<title>[root] azurerm_subnet.external (expand)&#45;&gt;[root] azurerm_virtual_network.example (expand)</title>
<path fill="none" stroke="black" d="M243.11,-287.87C265.43,-262.92 306.99,-216.45 332.64,-187.77"/>
<polygon fill="black" stroke="black" points="335.36,-189.98 339.42,-180.19 330.15,-185.31 335.36,-189.98"/>
</g>
<!-- [root] azurerm_subnet.internal (expand)&#45;&gt;[root] azurerm_virtual_network.example (expand) -->
<g id="edge4" class="edge">
<title>[root] azurerm_subnet.internal (expand)&#45;&gt;[root] azurerm_virtual_network.example (expand)</title>
<path fill="none" stroke="black" d="M426.31,-215.7C414.23,-206.8 399.34,-195.82 386.28,-186.2"/>
<polygon fill="black" stroke="black" points="388.13,-183.22 378.01,-180.1 383.98,-188.85 388.13,-183.22"/>
</g>
<!-- [root] azurerm_virtual_machine.main (expand) -->
<g id="node5" class="node">
<title>[root] azurerm_virtual_machine.main (expand)</title>
<polygon fill="none" stroke="black" points="574.29,-396 337.29,-396 337.29,-360 574.29,-360 574.29,-396"/>
<text text-anchor="middle" x="455.79" y="-374.3" font-family="Times,serif" font-size="14.00">azurerm_virtual_machine.main</text>
</g>
<!-- [root] azurerm_virtual_machine.main (expand)&#45;&gt;[root] azurerm_network_interface.example (expand) -->
<g id="edge5" class="edge">
<title>[root] azurerm_virtual_machine.main (expand)&#45;&gt;[root] azurerm_network_interface.example (expand)</title>
<path fill="none" stroke="black" d="M462.47,-359.7C465.51,-351.81 469.18,-342.3 472.56,-333.55"/>
<polygon fill="black" stroke="black" points="475.86,-334.69 476.2,-324.1 469.33,-332.17 475.86,-334.69"/>
</g>
<!-- [root] azurerm_virtual_network.example (expand)&#45;&gt;[root] azurerm_resource_group.rg (expand) -->
<g id="edge6" class="edge">
<title>[root] azurerm_virtual_network.example (expand)&#45;&gt;[root] azurerm_resource_group.rg (expand)</title>
<path fill="none" stroke="black" d="M354.79,-143.7C354.79,-135.98 354.79,-126.71 354.79,-118.11"/>
<polygon fill="black" stroke="black" points="358.29,-118.1 354.79,-108.1 351.29,-118.1 358.29,-118.1"/>
</g>
<!-- [root] provider[&quot;registry.terraform.io/hashicorp/azurerm&quot;] (close) -->
<g id="node8" class="node">
<title>[root] provider[&quot;registry.terraform.io/hashicorp/azurerm&quot;] (close)</title>
<ellipse fill="none" stroke="black" cx="354.79" cy="-450" rx="313.04" ry="18"/>
<text text-anchor="middle" x="354.79" y="-446.3" font-family="Times,serif" font-size="14.00">[root] provider[&quot;registry.terraform.io/hashicorp/azurerm&quot;] (close)</text>
</g>
<!-- [root] provider[&quot;registry.terraform.io/hashicorp/azurerm&quot;] (close)&#45;&gt;[root] azurerm_subnet.external (expand) -->
<g id="edge7" class="edge">
<title>[root] provider[&quot;registry.terraform.io/hashicorp/azurerm&quot;] (close)&#45;&gt;[root] azurerm_subnet.external (expand)</title>
<path fill="none" stroke="black" d="M339.48,-431.87C317.16,-406.92 275.6,-360.45 249.95,-331.77"/>
<polygon fill="black" stroke="black" points="252.44,-329.31 243.17,-324.19 247.23,-333.98 252.44,-329.31"/>
</g>
<!-- [root] provider[&quot;registry.terraform.io/hashicorp/azurerm&quot;] (close)&#45;&gt;[root] azurerm_virtual_machine.main (expand) -->
<g id="edge8" class="edge">
<title>[root] provider[&quot;registry.terraform.io/hashicorp/azurerm&quot;] (close)&#45;&gt;[root] azurerm_virtual_machine.main (expand)</title>
<path fill="none" stroke="black" d="M379.5,-431.88C392.46,-422.89 408.52,-411.76 422.56,-402.03"/>
<polygon fill="black" stroke="black" points="424.77,-404.76 430.99,-396.19 420.78,-399.01 424.77,-404.76"/>
</g>
<!-- [root] root -->
<g id="node9" class="node">
<title>[root] root</title>
<ellipse fill="none" stroke="black" cx="354.79" cy="-522" rx="58.49" ry="18"/>
<text text-anchor="middle" x="354.79" y="-518.3" font-family="Times,serif" font-size="14.00">[root] root</text>
</g>
<!-- [root] root&#45;&gt;[root] provider[&quot;registry.terraform.io/hashicorp/azurerm&quot;] (close) -->
<g id="edge9" class="edge">
<title>[root] root&#45;&gt;[root] provider[&quot;registry.terraform.io/hashicorp/azurerm&quot;] (close)</title>
<path fill="none" stroke="black" d="M354.79,-503.7C354.79,-495.98 354.79,-486.71 354.79,-478.11"/>
<polygon fill="black" stroke="black" points="358.29,-478.1 354.79,-468.1 351.29,-478.1 358.29,-478.1"/>
</g>
</g>
</svg>
